 <svg  version="1.0" xmlns="http://www.w3.org/2000/svg"  width="300.000000pt" height="182.000000pt" viewBox="0 0 300.000000 182.000000"  preserveAspectRatio="xMidYMid meet">  <g transform="translate(0.000000,182.000000) scale(0.100000,-0.100000)" fill="#2bff00" stroke="none"> <path d="M300 1325 c-172 -24 -273 -94 -244 -169 3 -9 12 -16 19 -16 6 0 32 -13 56 -30 24 -16 53 -30 65 -30 11 0 29 -9 39 -20 21 -24 41 -25 75 -5 38 21 74 38 85 39 17 2 11 30 -6 34 -9 2 -36 -10 -60 -26 -59 -39 -75 -44 -90 -26 -10 12 -8 17 7 29 24 18 100 55 114 55 13 0 13 17 1 24 -12 8 -131 -43 -131 -55 0 -5 -12 -9 -26 -9 -14 0 -23 -4 -19 -10 9 -15 -11 -12 -24 3 -14 18 6 37 71 67 31 14 53 33 63 53 19 39 20 37 -12 34 -34 -3 -123 -39 -123 -49 0 -11 3 -10 55 12 26 11 52 20 58 20 18 -1 -51 -60 -69 -60 -22 0 -64 -30 -64 -46 0 -8 -5 -14 -11 -14 -5 0 -7 5 -3 12 4 6 3 8 -2 5 -6 -3 -16 -2 -24 3 -12 7 -12 12 -2 22 6 6 12 22 12 34 0 73 231 116 475 90 44 -5 97 -8 119 -7 21 1 43 -2 50 -7 6 -5 34 -12 61 -15 69 -8 100 -14 175 -39 118 -38 170 -59 165 -68 -3 -4 2 -11 11 -14 8 -3 12 -10 9 -16 -10 -16 -19 -12 -30 12 -7 15 -31 30 -70 44 -90 33 -175 58 -180 52 -4 -4 78 -32 214 -74 8 -3 12 -7 9 -10 -10 -10 -224 48 -278 76 -39 20 -41 20 -38 3 4 -20 81 -63 114 -63 11 0 42 -7 68 -16 35 -12 46 -20 41 -31 -4 -13 -2 -13 19 1 27 17 86 22 86 7 0 -15 -267 -90 -293 -83 -12 3 -130 -29 -141 -39 -17 -15 4 -29 30 -19 14 6 43 12 66 15 22 3 44 8 49 11 5 3 9 1 9 -4 0 -5 -12 -15 -27 -22 -16 -8 -37 -22 -48 -31 -11 -9 -42 -19 -68 -23 -87 -11 -91 -28 -6 -21 92 8 111 -7 33 -24 -111 -25 -165 -109 -113 -175 37 -48 206 -152 232 -143 7 2 -1 11 -18 20 -16 9 -23 16 -15 17 10 0 7 7 -10 20 -14 11 -20 19 -14 18 13 -3 88 72 80 80 -5 5 -60 -34 -90 -64 -13 -13 -19 -14 -32 -4 -12 11 -7 18 36 47 47 32 63 53 39 53 -6 0 -25 -11 -43 -25 -18 -14 -38 -25 -44 -25 -7 0 -12 -7 -12 -15 0 -13 -4 -14 -20 -5 -33 17 -24 29 48 62 37 18 71 38 76 46 6 11 10 12 16 2 6 -9 13 -5 25 13 14 21 21 25 35 17 27 -15 29 -13 17 15 -18 39 -47 40 -121 5 -37 -18 -65 -35 -62 -38 3 -3 33 5 67 17 33 13 63 20 66 17 9 -8 0 -15 -23 -19 -44 -8 -174 -76 -174 -91 0 -9 -4 -16 -9 -16 -27 0 -21 88 7 113 10 7 45 24 79 36 58 22 62 25 57 50 -4 19 2 36 23 62 15 20 34 34 41 31 7 -2 24 3 38 12 13 9 29 14 34 11 6 -3 10 -2 10 3 0 5 11 8 25 7 13 -2 41 5 60 15 61 31 98 41 105 30 10 -16 37 -1 44 23 4 17 8 19 18 9 6 -6 23 -12 35 -12 26 0 73 -27 73 -42 0 -14 -30 -42 -37 -34 -3 3 0 12 6 20 13 16 2 29 -16 18 -6 -4 -13 -17 -17 -29 -4 -13 -11 -23 -15 -23 -4 0 -16 -7 -27 -16 -18 -15 -18 -15 6 -9 14 3 32 7 40 9 30 5 70 30 70 44 0 8 6 12 14 9 8 -3 20 1 26 9 7 8 19 14 26 14 7 0 31 7 52 15 36 15 39 19 40 60 2 33 -2 45 -12 45 -8 0 -23 3 -33 6 -17 5 -17 5 0 -9 9 -8 17 -19 17 -25 0 -21 -21 -24 -36 -6 -15 18 -15 18 -10 1 3 -10 6 -23 6 -28 0 -5 9 -9 19 -9 11 0 23 -4 26 -10 3 -5 -3 -10 -14 -10 -10 0 -27 -3 -37 -7 -12 -4 -15 -2 -12 8 3 8 1 26 -3 41 -4 16 -3 30 2 34 6 4 3 14 -7 25 -15 17 -16 19 -1 19 9 0 14 6 11 13 -2 7 9 17 28 25 37 14 47 8 30 -18 -18 -29 -15 -36 7 -16 10 9 17 25 14 34 -3 12 3 17 21 18 15 1 26 -2 26 -7 0 -6 6 -9 13 -8 32 4 57 -2 57 -15 0 -17 -38 -28 -43 -12 -3 8 -8 8 -17 -1 -17 -16 6 -26 47 -21 21 2 27 8 25 22 -2 11 1 15 7 11 6 -3 11 -13 11 -21 0 -18 14 -18 29 0 16 19 -2 56 -27 56 -10 0 -22 4 -27 8 -19 16 -94 35 -117 29 -128 -31 -152 -42 -163 -78 -5 -14 -1 -27 14 -40 20 -19 20 -21 4 -54 -9 -20 -19 -34 -22 -32 -8 4 -97 45 -156 72 -150 67 -371 121 -555 135 -163 12 -188 12 -310 -5z m1069 -217 c-9 -16 -14 -19 -17 -9 -2 7 2 17 9 22 20 13 21 11 8 -13z m-643 -443 c10 -8 14 -15 8 -15 -5 0 -19 7 -30 15 -10 8 -14 15 -8 15 5 0 19 -7 30 -15z m59 -35 c8 -13 -5 -13 -25 0 -13 8 -13 10 2 10 9 0 20 -4 23 -10z"/> <path d="M2370 1324 c-95 -7 -195 -24 -295 -50 -33 -8 -71 -18 -85 -21 -20 -5 -256 -94 -310 -117 -10 -4 -21 5 -34 26 -11 20 -21 28 -23 20 -3 -7 2 -21 11 -31 30 -33 14 -51 -45 -51 -18 0 -28 -4 -24 -10 3 -5 13 -10 22 -10 9 0 21 -8 28 -17 12 -15 15 -15 45 10 17 15 42 27 54 27 13 0 34 8 47 19 13 10 39 26 56 35 52 26 264 93 318 101 l50 7 -50 -29 c-27 -16 -70 -35 -95 -42 -25 -7 -67 -19 -95 -27 -133 -37 -165 -47 -165 -55 0 -13 14 -11 28 3 6 6 15 9 19 5 3 -4 -3 -16 -15 -27 -27 -26 -27 -30 -2 -23 11 3 20 9 20 14 0 14 20 11 36 -5 8 -8 36 -18 62 -21 26 -4 88 -18 138 -31 51 -13 106 -24 122 -24 17 0 43 -5 58 -12 24 -11 28 -10 46 12 11 14 25 25 32 26 6 0 19 2 29 2 44 4 -12 39 -85 52 -29 6 -38 4 -38 -6 0 -8 8 -14 18 -14 9 0 26 -7 36 -15 19 -15 19 -15 -1 -15 -12 0 -23 -5 -25 -12 -3 -7 -11 -9 -24 -3 -10 4 -30 10 -44 12 -14 2 -38 8 -55 13 -16 5 -55 14 -84 20 -30 6 -59 16 -63 23 -5 8 -8 9 -8 0 0 -13 -89 4 -124 24 -16 9 -7 12 50 22 62 10 118 26 195 53 14 5 46 27 70 49 49 44 55 46 154 54 264 19 437 17 432 -7 -1 -6 5 -12 14 -13 38 -7 59 -17 59 -31 0 -8 5 -14 11 -14 6 0 9 9 6 20 -3 11 -1 18 4 14 5 -3 9 -11 9 -18 0 -12 34 -15 45 -4 11 11 -57 58 -108 74 -52 17 -297 27 -427 18z"/> <path d="M515 1273 c-50 -4 -145 -34 -139 -44 2 -4 13 -5 23 -2 29 7 37 -17 11 -37 -22 -16 -22 -17 24 -17 31 0 43 4 37 11 -4 6 -11 21 -14 33 -4 20 0 23 42 28 25 4 53 9 61 12 8 4 18 5 23 5 4 -1 7 3 7 8 0 6 -8 9 -17 8 -10 -1 -36 -3 -58 -5z"/> <path d="M2600 1265 c7 -8 9 -22 6 -31 -4 -9 -2 -22 3 -28 16 -20 -3 -40 -26 -27 -11 5 -23 7 -27 4 -11 -12 -6 -19 14 -20 11 -1 27 -9 36 -17 8 -9 23 -16 32 -16 12 0 13 3 4 12 -23 23 -12 27 29 9 47 -21 66 -38 55 -48 -4 -5 -13 0 -21 10 -10 14 -14 15 -18 4 -3 -8 0 -20 6 -26 21 -21 -11 -12 -53 14 -44 28 -66 31 -73 13 -3 -10 -9 -10 -26 0 -25 14 -31 15 -31 3 0 -5 12 -12 26 -15 30 -8 27 -32 -3 -28 -12 2 -23 -4 -27 -13 -3 -9 -10 -13 -16 -10 -6 4 -7 -1 -3 -11 5 -14 2 -16 -15 -12 -12 4 -26 0 -33 -8 -7 -9 -21 -12 -33 -9 -19 5 -19 5 -3 -5 9 -6 17 -18 17 -26 0 -8 -5 -12 -11 -9 -20 13 -59 12 -70 -1 -9 -11 -7 -14 10 -15 11 -1 31 -1 44 -2 12 -1 27 2 33 6 6 3 20 0 30 -8 18 -13 16 -14 -17 -15 -20 0 -42 -7 -49 -15 -8 -10 -21 -13 -38 -8 -13 3 -32 7 -41 8 -54 5 -118 19 -128 27 -14 11 -17 0 -5 -18 12 -18 190 -35 256 -24 57 9 131 44 156 74 7 9 18 16 24 16 6 0 20 7 30 15 18 14 18 15 -5 34 -27 22 -39 20 -19 -4 10 -12 10 -15 -2 -15 -22 0 -56 30 -40 36 6 3 12 14 12 24 0 19 1 19 35 -1 19 -12 35 -25 35 -30 0 -18 37 -8 60 16 13 14 31 25 41 25 10 0 30 11 45 25 15 14 32 25 39 25 13 0 39 49 30 58 -3 3 -5 0 -5 -6 0 -7 -6 -11 -12 -9 -7 1 -12 -4 -11 -10 4 -19 -21 -16 -59 6 -38 23 -123 26 -92 4 9 -7 32 -12 50 -11 18 1 40 -5 49 -12 24 -20 10 -24 -19 -5 -23 15 -26 16 -26 2 0 -9 8 -20 17 -26 10 -5 14 -13 10 -17 -4 -5 -20 0 -35 10 -15 9 -44 25 -65 33 -29 13 -37 21 -34 35 4 12 0 18 -11 19 -13 0 -11 3 6 11 12 6 22 15 22 19 0 11 -35 29 -56 29 -13 0 -14 -3 -4 -15z m-32 -234 c30 -26 29 -43 -3 -35 -22 5 -24 3 -18 -12 6 -18 6 -18 -15 0 -22 19 -29 37 -14 35 19 -3 23 2 12 16 -19 22 9 19 38 -4z m-66 -48 c17 -15 25 -43 12 -43 -15 0 -64 36 -64 47 0 18 30 16 52 -4z"/> <path d="M2430 1261 c0 -11 29 -23 39 -17 4 3 24 1 44 -3 40 -10 52 -4 36 16 -13 15 -119 19 -119 4z"/> <path d="M2670 1260 c0 -5 5 -10 10 -10 6 0 10 5 10 10 0 6 -4 10 -10 10 -5 0 -10 -4 -10 -10z"/> <path d="M2732 1250 c5 -17 38 -35 83 -46 42 -9 20 9 -30 25 -22 8 -44 19 -48 25 -6 7 -7 6 -5 -4z"/> <path d="M733 1236 c15 -12 11 -14 -33 -19 -27 -3 -72 -3 -100 0 -34 4 -50 2 -50 -6 0 -6 14 -11 30 -11 17 0 30 -5 30 -11 0 -6 8 -8 18 -5 9 3 40 6 67 7 61 1 105 8 105 17 0 9 -58 42 -73 42 -7 0 -4 -7 6 -14z"/> <path d="M860 1240 c0 -5 5 -10 10 -10 6 0 10 5 10 10 0 6 -4 10 -10 10 -5 0 -10 -4 -10 -10z"/> <path d="M2260 1240 c0 -5 12 -10 26 -10 14 0 23 4 19 10 -3 6 -15 10 -26 10 -10 0 -19 -4 -19 -10z"/> <path d="M2395 1220 c-16 -4 -67 -8 -112 -9 -95 -1 -126 -20 -36 -22 32 -1 69 -3 83 -5 14 -1 32 0 40 3 8 4 22 8 30 8 28 4 60 17 60 26 0 10 -22 10 -65 -1z"/> <path d="M1568 1189 c-2 -16 -11 -25 -26 -27 -26 -4 -41 -30 -24 -41 19 -11 85 0 73 12 -7 7 -7 16 0 30 8 15 7 23 -4 34 -14 14 -16 13 -19 -8z"/> <path d="M520 1173 c-29 -12 -104 -65 -85 -61 23 5 45 -13 45 -37 0 -19 26 -20 33 -1 3 8 -1 20 -9 27 -11 9 -11 15 -3 25 6 8 14 12 18 9 7 -4 41 30 41 40 0 6 -21 5 -40 -2z"/> <path d="M2453 1172 c-29 -9 -17 -28 22 -38 30 -7 30 -7 12 13 -14 16 -15 22 -5 26 18 8 -2 6 -29 -1z"/> <path d="M768 1163 c7 -3 16 -2 19 1 4 3 -2 6 -13 5 -11 0 -14 -3 -6 -6z"/> <path d="M832 1161 c-11 -7 -10 -10 3 -15 23 -9 25 -8 25 9 0 17 -9 19 -28 6z"/> <path d="M2344 1155 c11 -8 23 -15 28 -15 4 0 8 -4 8 -8 0 -5 -27 -2 -59 7 -51 13 -69 13 -123 3 -35 -8 -69 -21 -75 -30 -12 -14 -17 -10 -14 11 0 4 -20 7 -45 7 -52 0 -59 -23 -8 -28 16 -2 36 -6 44 -9 18 -8 29 -10 57 -12 14 -1 20 -6 17 -14 -5 -13 62 -44 73 -33 4 3 -8 11 -25 17 -30 10 -44 29 -22 29 6 0 10 7 10 15 0 12 -4 13 -18 6 -10 -5 -24 -6 -31 -2 -10 6 -9 10 4 15 23 8 141 7 190 -3 74 -14 91 14 27 42 -47 21 -64 21 -38 2z"/> <path d="M625 1137 c-22 -8 -46 -12 -53 -9 -6 2 -12 -4 -12 -13 0 -14 6 -16 28 -10 15 3 80 9 146 11 105 4 117 2 106 -11 -11 -13 -9 -15 13 -15 14 0 29 5 32 10 3 6 23 10 45 10 24 0 40 5 44 15 3 10 -1 15 -12 15 -9 0 -28 3 -42 6 -19 4 -22 3 -10 -5 11 -8 2 -9 -35 -7 -194 15 -212 15 -250 3z"/> <path d="M1955 1120 c-3 -5 3 -10 15 -10 12 0 18 5 15 10 -3 6 -10 10 -15 10 -5 0 -12 -4 -15 -10z"/> <path d="M700 1088 c-96 -42 -140 -64 -140 -71 0 -5 8 -6 19 -2 10 3 24 -1 31 -10 10 -13 9 -15 -9 -15 -12 0 -33 -11 -46 -24 -13 -14 -32 -26 -42 -28 -27 -5 -18 -23 14 -26 15 -2 32 2 38 10 5 8 29 23 53 33 44 20 51 32 30 53 -10 10 -8 14 10 18 12 4 22 9 22 13 0 4 18 17 40 30 22 12 40 24 40 27 0 7 -34 3 -60 -8z"/> <path d="M770 1085 c0 -19 11 -19 36 0 18 14 18 14 -8 15 -18 0 -28 -5 -28 -15z"/> <path d="M1520 1090 c0 -5 5 -10 10 -10 6 0 10 5 10 10 0 6 -4 10 -10 10 -5 0 -10 -4 -10 -10z"/> <path d="M1190 1081 c0 -5 -15 -14 -32 -21 -18 -7 -46 -19 -63 -25 -16 -7 -38 -15 -47 -19 -10 -3 -18 -10 -18 -15 0 -10 104 25 159 53 17 9 29 21 26 26 -8 12 -25 13 -25 1z"/> <path d="M2370 1082 c0 -5 11 -14 25 -20 29 -14 44 2 16 17 -24 13 -41 14 -41 3z"/> <path d="M403 1061 c-10 -10 -30 -26 -46 -36 -26 -17 -28 -17 -47 0 -11 10 -20 13 -20 7 0 -6 5 -14 10 -17 6 -3 10 -11 10 -16 0 -6 -15 -1 -34 10 -56 35 -54 23 3 -15 56 -38 212 -114 233 -114 6 0 -6 13 -28 30 -39 30 -60 38 -49 20 8 -12 -5 -13 -24 -1 -10 6 -5 11 18 16 18 4 37 15 44 26 7 11 23 19 39 19 32 0 43 13 23 30 -19 16 -54 3 -78 -27 -12 -15 -27 -23 -38 -20 -10 3 -19 1 -21 -5 -2 -5 -12 0 -22 11 -14 16 -16 21 -5 21 8 0 25 9 39 20 14 11 33 20 43 20 21 0 23 26 1 34 -24 9 -32 7 -51 -13z m-37 -92 c19 -22 19 -22 -1 -11 -11 6 -27 16 -35 22 -13 8 -13 10 1 10 9 0 24 -10 35 -21z"/> <path d="M1687 1066 c-14 -11 -16 -19 -7 -40 5 -14 16 -26 25 -26 8 0 15 -7 15 -15 0 -18 12 -19 28 -3 9 9 12 9 12 0 0 -7 12 -12 28 -12 20 0 23 -3 12 -10 -12 -7 -10 -11 10 -18 54 -20 70 -23 70 -13 0 6 -9 11 -20 11 -11 0 -23 7 -27 16 -3 9 -34 29 -69 45 -34 16 -66 33 -69 39 -16 25 9 22 71 -8 35 -18 74 -32 85 -32 12 0 37 -7 56 -17 30 -14 36 -14 44 -2 7 11 9 11 9 -3 0 -10 5 -18 10 -18 18 0 10 19 -14 35 -14 9 -34 14 -47 10 -16 -3 -53 8 -104 31 -44 19 -84 37 -90 39 -5 3 -18 -2 -28 -9z"/> <path d="M2085 1070 c3 -5 10 -10 16 -10 5 0 9 5 9 10 0 6 -7 10 -16 10 -8 0 -12 -4 -9 -10z"/> <path d="M1453 1051 c-13 -11 -23 -30 -23 -45 0 -18 -4 -24 -15 -20 -11 5 -15 -1 -15 -25 0 -36 4 -37 46 -12 29 18 32 24 32 70 0 28 -1 51 -2 51 0 -1 -11 -9 -23 -19z"/> <path d="M1570 1051 c0 -11 -4 -21 -8 -21 -5 0 -14 -11 -20 -25 -6 -14 -19 -25 -28 -25 -20 0 -15 -32 6 -36 8 -1 22 -5 30 -8 10 -4 21 6 33 30 21 43 22 77 2 94 -13 10 -15 9 -15 -9z"/> <path d="M1815 1050 c3 -5 18 -10 33 -9 24 0 25 1 7 9 -28 12 -47 12 -40 0z"/> <path d="M1900 1031 c14 -5 61 -16 105 -26 95 -22 115 -31 115 -51 0 -12 -4 -12 -26 2 -21 14 -27 15 -34 4 -7 -11 -11 -11 -24 0 -26 21 -32 2 -7 -21 19 -18 25 -19 32 -8 4 7 11 10 15 6 4 -4 0 -13 -10 -20 -16 -12 -16 -14 -2 -26 14 -11 16 -11 16 3 0 9 5 16 10 16 16 0 12 -13 -14 -41 -24 -26 -37 -71 -36 -126 0 -17 -4 -34 -9 -38 -6 -3 -18 -21 -27 -40 -12 -26 -23 -35 -41 -35 -27 0 -63 -16 -63 -29 0 -11 106 -44 122 -38 7 2 -8 10 -35 17 -63 17 -68 28 -10 26 51 -2 74 13 66 42 -7 30 21 33 34 5 10 -21 10 -24 -4 -19 -11 5 -14 2 -9 -11 4 -9 1 -20 -6 -25 -10 -6 -9 -8 3 -8 9 0 22 6 28 14 7 8 20 12 31 9 11 -3 38 4 60 16 39 20 49 27 89 61 10 8 26 20 37 26 22 13 26 51 5 46 -20 -4 -31 19 -20 40 8 14 2 21 -31 38 -22 11 -40 16 -40 10 0 -6 12 -15 26 -20 32 -13 23 -29 -13 -23 -27 3 -27 3 -5 -8 12 -7 22 -16 22 -21 0 -13 -24 -9 -46 7 -24 18 -44 19 -44 2 0 -6 23 -21 52 -32 28 -11 53 -26 56 -34 3 -10 -6 -8 -30 7 -34 21 -68 32 -38 12 12 -8 13 -12 1 -19 -10 -7 -8 -12 10 -25 17 -12 19 -16 7 -16 -8 0 -21 7 -28 15 -11 13 -15 12 -31 -6 -23 -27 -25 -43 -3 -35 9 3 17 6 20 6 2 0 1 8 -3 18 -5 14 -3 15 7 5 12 -11 10 -17 -9 -34 -21 -20 -24 -21 -33 -6 -5 10 -14 17 -20 17 -7 0 -6 -6 2 -15 19 -23 6 -28 -15 -5 -31 34 -34 89 -9 156 12 32 25 58 29 56 4 -2 9 -1 13 2 3 3 1 6 -5 6 -6 0 -14 7 -17 16 -4 11 -1 14 13 9 14 -4 20 1 24 22 8 42 -2 82 -22 82 -9 0 -58 11 -110 25 -51 14 -105 26 -120 25 l-26 -1 25 -7z m388 -280 c3 -8 -1 -12 -9 -9 -7 2 -15 10 -17 17 -3 8 1 12 9 9 7 -2 15 -10 17 -17z m-48 -41 c8 -5 12 -11 9 -14 -3 -3 -14 1 -25 9 -21 16 -8 20 16 5z"/> <path d="M1640 1021 c0 -6 5 -13 10 -16 6 -3 10 1 10 9 0 9 -4 16 -10 16 -5 0 -10 -4 -10 -9z"/> <path d="M954 995 c-66 -20 -129 -56 -114 -65 7 -4 9 -13 6 -19 -4 -6 -2 -11 3 -11 6 0 11 8 11 18 0 17 51 43 113 58 28 6 43 20 30 27 -5 2 -26 -2 -49 -8z"/> <path d="M1297 990 c-9 -11 -17 -24 -17 -29 0 -5 -6 -12 -12 -15 -7 -3 1 -3 17 0 24 4 27 3 13 -6 -13 -8 -15 -16 -9 -34 6 -13 5 -29 0 -37 -12 -19 -11 -32 1 -24 7 4 9 -2 4 -19 -4 -16 -2 -26 5 -26 7 0 10 -21 7 -63 -5 -68 8 -128 41 -197 11 -25 26 -61 32 -81 7 -20 23 -50 36 -65 14 -16 25 -36 25 -44 0 -18 37 -43 50 -35 11 7 -6 52 -32 81 -10 11 -18 26 -18 32 0 16 -42 105 -53 113 -5 3 -7 15 -5 26 1 10 -5 31 -15 46 -10 15 -15 32 -12 36 3 5 1 21 -5 36 -7 18 -7 31 -1 39 7 8 7 25 0 49 -7 25 -6 49 1 77 6 22 8 45 5 51 -4 5 0 21 9 34 20 31 20 36 0 28 -13 -5 -15 -2 -9 15 3 13 2 22 -4 22 -5 0 -15 2 -23 5 -7 3 -21 -4 -31 -15z m39 -115 c1 -8 -2 -17 -7 -21 -5 -3 -9 7 -9 22 0 27 12 26 16 -1z"/> <path d="M1990 979 c0 -5 5 -7 10 -4 6 3 10 8 10 11 0 2 -4 4 -10 4 -5 0 -10 -5 -10 -11z"/> <path d="M2200 970 c0 -11 48 -25 57 -16 9 8 3 12 -29 20 -17 4 -28 2 -28 -4z"/> <path d="M1601 944 c-12 -14 -20 -28 -17 -32 7 -6 46 36 46 50 0 13 -5 10 -29 -18z"/> <path d="M1640 945 c0 -8 5 -15 10 -15 6 0 10 7 10 15 0 8 -4 15 -10 15 -5 0 -10 -7 -10 -15z"/> <path d="M1670 931 c0 -6 5 -13 10 -16 6 -3 10 1 10 9 0 9 -4 16 -10 16 -5 0 -10 -4 -10 -9z"/> <path d="M2355 930 c3 -5 8 -10 11 -10 2 0 4 5 4 10 0 6 -5 10 -11 10 -5 0 -7 -4 -4 -10z"/> <path d="M870 921 c0 -5 5 -13 10 -16 6 -3 10 -2 10 4 0 5 -4 13 -10 16 -5 3 -10 2 -10 -4z"/> <path d="M1375 920 c-3 -5 1 -10 10 -10 9 0 13 5 10 10 -3 6 -8 10 -10 10 -2 0 -7 -4 -10 -10z"/> <path d="M1460 902 c0 -11 -11 -24 -25 -30 -15 -7 -25 -8 -25 -2 0 6 -4 10 -10 10 -18 0 -11 -30 8 -31 32 -2 47 2 60 19 14 19 16 52 2 52 -5 0 -10 -8 -10 -18z"/> <path d="M1510 912 c0 -10 21 -32 32 -32 16 0 8 19 -12 30 -11 6 -20 7 -20 2z"/> <path d="M535 889 c-8 -13 -6 -15 23 -23 18 -6 22 -3 22 13 0 23 -33 30 -45 10z"/> <path d="M2170 892 c0 -16 36 -33 53 -26 21 8 67 -18 112 -61 42 -42 55 -40 29 4 -28 47 -194 118 -194 83z"/> <path d="M2290 890 c0 -5 5 -10 10 -10 6 0 10 5 10 10 0 6 -4 10 -10 10 -5 0 -10 -4 -10 -10z"/> <path d="M1610 880 c0 -5 5 -10 10 -10 6 0 10 5 10 10 0 6 -4 10 -10 10 -5 0 -10 -4 -10 -10z"/> <path d="M1490 864 c0 -7 6 -15 13 -15 6 -1 24 -3 39 -4 15 -2 32 3 39 11 16 19 4 30 -16 14 -11 -9 -22 -9 -45 -2 -24 9 -30 8 -30 -4z"/> <path d="M1648 843 c5 -10 12 -25 15 -33 3 -8 6 0 6 18 1 22 -4 32 -14 32 -12 0 -13 -5 -7 -17z"/> <path d="M2142 833 c-15 -6 -6 -23 14 -23 8 0 14 7 14 15 0 15 -6 17 -28 8z"/> <path d="M696 814 c-11 -7 -17 -16 -15 -19 7 -7 49 6 49 16 0 15 -15 17 -34 3z"/> <path d="M1418 823 c-27 -4 -35 -13 -22 -26 8 -8 64 13 64 24 0 5 -3 8 -7 8 -5 -1 -20 -4 -35 -6z"/> <path d="M1573 818 c-25 -12 -31 -28 -10 -28 14 1 47 24 47 34 0 8 -11 7 -37 -6z"/> <path d="M914 789 c-4 -7 -3 -14 4 -17 6 -2 8 -10 5 -18 -3 -8 0 -14 6 -14 7 0 10 11 8 25 -4 31 -13 40 -23 24z"/> <path d="M1461 776 c-7 -8 -22 -16 -33 -18 -12 -2 -23 -9 -26 -17 -3 -10 3 -12 29 -6 42 9 67 31 53 45 -8 8 -15 6 -23 -4z"/> <path d="M1576 759 c5 -8 -6 -9 -37 -4 -43 7 -44 7 -25 -11 24 -23 80 -24 84 -2 2 9 -4 18 -13 22 -10 4 -14 2 -9 -5z"/> <path d="M1690 733 c0 -42 51 -142 84 -162 41 -24 89 -36 84 -20 -2 7 -15 14 -28 16 -28 4 -90 49 -90 66 -1 24 -49 122 -50 100z"/> <path d="M1451 716 c-12 -14 -5 -26 16 -26 15 0 18 26 4 34 -5 3 -14 0 -20 -8z"/> <path d="M1550 706 c0 -15 24 -28 34 -19 7 7 -13 33 -25 33 -5 0 -9 -6 -9 -14z"/> <path d="M930 676 c-6 -19 -17 -37 -25 -40 -22 -8 -18 -26 5 -26 15 0 22 9 26 30 4 16 13 35 20 41 18 15 18 29 0 29 -8 0 -20 -15 -26 -34z"/> <path d="M861 666 c-13 -14 -21 -30 -19 -38 3 -8 13 -3 31 16 15 16 27 33 27 37 0 16 -16 9 -39 -15z"/> <path d="M1452 663 c3 -39 -2 -52 -17 -47 -8 4 -15 2 -15 -4 0 -5 9 -12 21 -15 17 -5 19 -9 10 -25 -6 -11 -7 -22 -4 -26 3 -3 1 -6 -6 -6 -7 0 -11 -6 -9 -12 6 -17 78 -11 97 7 12 11 7 13 -29 8 -38 -5 -42 -4 -37 13 3 10 8 43 11 72 5 42 3 52 -9 52 -8 0 -14 -8 -13 -17z"/> <path d="M1533 660 c-2 -22 5 -25 27 -10 13 9 13 11 0 20 -21 14 -26 12 -27 -10z"/> <path d="M1652 630 c0 -27 1 -50 4 -50 11 0 25 56 19 77 -9 39 -22 25 -23 -27z"/> <path d="M956 643 c-19 -19 -1 -28 56 -28 35 0 63 5 65 11 2 6 -2 11 -9 11 -7 1 -34 3 -60 6 -25 3 -49 3 -52 0z"/> <path d="M1533 628 c-23 -11 -32 -38 -13 -38 6 0 10 7 10 15 0 8 9 15 20 15 11 0 20 5 20 10 0 12 -8 12 -37 -2z"/> <path d="M840 606 c0 -9 30 -14 35 -6 4 6 -3 10 -14 10 -12 0 -21 -2 -21 -4z"/> <path d="M1060 586 c0 -2 7 -9 15 -16 12 -10 15 -10 15 4 0 9 -7 16 -15 16 -8 0 -15 -2 -15 -4z"/> </g> </svg> 